<!DOCTYPE svg PUBLIC "-//W3C//DTD SVG 1.1//EN" "http://www.w3.org/Graphics/SVG/1.1/DTD/svg11.dtd">
<!-- Uploaded to: SVG Repo, www.svgrepo.com, Transformed by: SVG Repo Mixer Tools -->
<svg fill="#000000" height="64px" width="64px" version="1.1" id="Layer_1" xmlns="http://www.w3.org/2000/svg" xmlns:xlink="http://www.w3.org/1999/xlink" viewBox="0 0 503.61 503.61" xml:space="preserve">
<g id="SVGRepo_bgCarrier" stroke-width="0"/>
<g id="SVGRepo_tracerCarrier" stroke-linecap="round" stroke-linejoin="round"/>
<g id="SVGRepo_iconCarrier"> <g> <g> <g> <path d="M377.705,243.41h-8.393v-16.787h8.393c4.633,0,8.393-3.752,8.393-8.393s-3.76-8.393-8.393-8.393h-8.393v-58.754 c0-20.262-14.445-37.225-33.574-41.111V92.328c0-6.471-2.526-12.322-6.547-16.787c4.02-4.465,6.547-10.315,6.547-16.787 s-2.526-12.322-6.547-16.787c4.02-4.465,6.547-10.316,6.547-16.787c0-13.883-11.298-25.18-25.18-25.18H176.262 c-13.883,0-25.18,11.298-25.18,25.18c0,6.471,2.526,12.322,6.547,16.787c-4.021,4.465-6.547,10.315-6.547,16.787 s2.526,12.322,6.547,16.787c-4.021,4.465-6.547,10.316-6.547,16.787v17.643c-19.129,3.886-33.574,20.849-33.574,41.111v167.869 c0,20.262,14.445,37.225,33.574,41.111v17.643c0,6.471,2.526,12.322,6.547,16.787c-4.021,4.465-6.547,10.316-6.547,16.787 c0,6.471,2.526,12.322,6.547,16.787c-4.021,4.465-6.547,10.316-6.547,16.787c0,6.471,2.526,12.322,6.547,16.787 c-4.021,4.465-6.547,10.316-6.547,16.787c0,13.883,11.298,25.18,25.18,25.18h134.295c13.883,0,25.18-11.298,25.18-25.18 c0-6.471-2.526-12.322-6.547-16.787c4.02-4.465,6.547-10.315,6.547-16.787c0-6.471-2.526-12.322-6.547-16.787 c4.02-4.465,6.547-10.316,6.547-16.787c0-6.471-2.526-12.322-6.547-16.787c4.02-4.465,6.547-10.316,6.547-16.787v-17.643 c19.129-3.886,33.574-20.849,33.574-41.111v-58.754h8.393c4.633,0,8.393-3.752,8.393-8.393 C386.098,247.162,382.338,243.41,377.705,243.41z M176.262,16.787h134.295c4.625,0,8.393,3.76,8.393,8.393 s-3.769,8.393-8.393,8.393H176.262c-4.625,0-8.393-3.76-8.393-8.393S171.637,16.787,176.262,16.787z M167.869,92.328 c0-4.633,3.769-8.393,8.393-8.393h134.295c4.625,0,8.393,3.76,8.393,8.393v16.787H167.869V92.328z M310.557,453.246H176.262 c-4.625,0-8.393-3.76-8.393-8.393s3.769-8.393,8.393-8.393h134.295c4.625,0,8.393,3.76,8.393,8.393 S315.182,453.246,310.557,453.246z M318.951,377.705c0,4.633-3.769,8.393-8.393,8.393H176.262c-4.625,0-8.393-3.76-8.393-8.393 v-16.787h151.082V377.705z M327.344,310.557c0,4.642-3.76,8.393-8.393,8.393H167.869c-4.633,0-8.393-3.752-8.393-8.393V159.475 c0-4.642,3.76-8.393,8.393-8.393h151.082c4.633,0,8.393,3.752,8.393,8.393V310.557z"/> <path d="M251.803,176.262c0,4.642-3.76,8.393-8.393,8.393s-8.393-3.752-8.393-8.393v-8.393h-58.754v58.754h8.393 c4.633,0,8.393,3.752,8.393,8.393c0,4.642-3.76,8.393-8.393,8.393h-8.393v58.754h58.754v-8.393c0-4.642,3.76-8.393,8.393-8.393 s8.393,3.752,8.393,8.393v8.393h58.754V243.41h-8.393c-4.633,0-8.393-3.752-8.393-8.393c0-4.642,3.76-8.393,8.393-8.393h8.393 v-58.754h-58.754V176.262z M276.984,235.016c0,4.642-3.76,8.393-8.393,8.393h-25.18c-4.633,0-8.393-3.752-8.393-8.393v-33.574 c0-4.642,3.76-8.393,8.393-8.393s8.393,3.752,8.393,8.393v25.18h16.787C273.223,226.623,276.984,230.375,276.984,235.016z"/> </g> </g> </g> </g>
</svg>